<svg width="120" height="81" viewBox="0 0 120 81" fill="none" xmlns="http://www.w3.org/2000/svg">
<path d="M0.666504 18.7222V11.2222H2.61109V15.4167L7.90275 10.1251L9.26359 11.4863L3.97192 16.778H8.1665V18.7222H0.666504ZM11.4861 9.26383L10.1248 7.903L15.4165 2.61133H11.2219V0.666748H18.7219V8.16675H16.7778V3.97217L11.4861 9.26383ZM23.6248 37.3334C22.9973 37.3334 22.3961 37.2177 21.8211 36.9863C21.2458 36.7547 20.7314 36.412 20.2778 35.9584L11.6665 27.3334L12.4998 26.2917C12.8518 25.8473 13.2893 25.5394 13.8123 25.368C14.3354 25.1969 14.8701 25.1854 15.4165 25.3334L18.9998 26.3197V12.3334C18.9998 11.9398 19.1334 11.6099 19.4007 11.3438C19.6676 11.0777 19.9986 10.9447 20.3936 10.9447C20.7886 10.9447 21.118 11.0777 21.3819 11.3438C21.6458 11.6099 21.7778 11.9398 21.7778 12.3334V30.0138L16.9861 28.7222L22.2686 34.0051C22.4414 34.1776 22.6469 34.3124 22.8853 34.4097C23.1239 34.5069 23.3704 34.5555 23.6248 34.5555H30.6665C31.7498 34.5555 32.6689 34.1783 33.4236 33.4238C34.178 32.6691 34.5553 31.7501 34.5553 30.6667V23.4447C34.5553 23.0511 34.6889 22.7212 34.9561 22.4551C35.2233 22.1887 35.5543 22.0555 35.949 22.0555C36.344 22.0555 36.6735 22.1887 36.9373 22.4551C37.2012 22.7212 37.3332 23.0511 37.3332 23.4447V30.6667C37.3332 32.5001 36.6804 34.0695 35.3748 35.3751C34.0693 36.6806 32.4998 37.3334 30.6665 37.3334H23.6248ZM24.1944 25.3888V18.4447C24.1944 18.0511 24.3279 17.7212 24.5948 17.4551C24.8621 17.1887 25.1932 17.0555 25.5882 17.0555C25.9829 17.0555 26.3122 17.1887 26.5761 17.4551C26.84 17.7212 26.9719 18.0511 26.9719 18.4447V25.3888H24.1944ZM29.3611 25.3888V20.1113C29.3611 19.7177 29.4946 19.3879 29.7615 19.1217C30.0287 18.8554 30.3598 18.7222 30.7548 18.7222C31.1496 18.7222 31.4789 18.8554 31.7428 19.1217C32.0066 19.3879 32.1386 19.7177 32.1386 20.1113V25.3888H29.3611Z" fill="white"/>
<rect x="14.5" y="51" width="105" height="30" rx="10" fill="#0A7CC1"/>
<path d="M28.94 65.43L26.24 69H25.3V64.24H26.24V67.71L28.94 64.24H29.88V69H28.94V65.43ZM31.7516 65.46L31.1216 65.04C31.135 65.0133 31.175 64.9467 31.2416 64.84C31.3083 64.7333 31.4116 64.6267 31.5516 64.52C31.6983 64.4067 31.885 64.3067 32.1116 64.22C32.345 64.1267 32.6316 64.08 32.9716 64.08C33.285 64.08 33.555 64.12 33.7816 64.2C34.015 64.2733 34.205 64.3733 34.3516 64.5C34.505 64.62 34.6183 64.7633 34.6916 64.93C34.765 65.09 34.8016 65.2533 34.8016 65.42C34.8016 65.7467 34.6916 66.01 34.4716 66.21C34.2516 66.41 33.9883 66.5267 33.6816 66.56V66.59C33.8416 66.5967 33.9983 66.6233 34.1516 66.67C34.3116 66.71 34.4516 66.7767 34.5716 66.87C34.6983 66.9567 34.7983 67.07 34.8716 67.21C34.945 67.3433 34.9816 67.5067 34.9816 67.7C34.9816 67.9267 34.9316 68.13 34.8316 68.31C34.7316 68.4833 34.5916 68.6333 34.4116 68.76C34.2316 68.88 34.015 68.9733 33.7616 69.04C33.515 69.1067 33.2416 69.14 32.9416 69.14C32.5883 69.14 32.295 69.0967 32.0616 69.01C31.8283 68.9233 31.6383 68.8267 31.4916 68.72C31.3516 68.6133 31.245 68.5133 31.1716 68.42C31.105 68.3267 31.0616 68.2733 31.0416 68.26L31.6316 67.76C31.645 67.7733 31.6783 67.8167 31.7316 67.89C31.785 67.9567 31.865 68.03 31.9716 68.11C32.0783 68.19 32.2116 68.2633 32.3716 68.33C32.5316 68.39 32.7283 68.42 32.9616 68.42C33.3083 68.42 33.5783 68.3533 33.7716 68.22C33.9716 68.08 34.0716 67.8867 34.0716 67.64C34.0716 67.4267 33.9783 67.2533 33.7916 67.12C33.605 66.9867 33.325 66.92 32.9516 66.92H32.2916V66.28H32.8716C33.1716 66.28 33.4216 66.2233 33.6216 66.11C33.8283 65.9967 33.9316 65.8133 33.9316 65.56C33.9316 65.3533 33.8483 65.17 33.6816 65.01C33.515 64.8433 33.255 64.76 32.9016 64.76C32.6683 64.76 32.4783 64.7967 32.3316 64.87C32.185 64.9433 32.0683 65.0233 31.9816 65.11C31.8816 65.2167 31.805 65.3333 31.7516 65.46ZM37.0887 64.24L39.0387 66.55L40.9587 64.24H41.7587V69H40.8287V65.56L39.1687 67.68H38.8887L37.2187 65.6V69H36.2887V64.24H37.0887ZM46.979 66.21C46.9657 65.81 46.839 65.48 46.599 65.22C46.359 64.96 46.0157 64.83 45.569 64.83C45.3623 64.83 45.169 64.87 44.989 64.95C44.8157 65.0233 44.6623 65.1233 44.529 65.25C44.3957 65.3767 44.2857 65.5233 44.199 65.69C44.119 65.8567 44.0723 66.03 44.059 66.21H46.979ZM47.879 66.53C47.879 66.5833 47.879 66.64 47.879 66.7C47.879 66.7533 47.8757 66.81 47.869 66.87H44.059C44.0657 67.0833 44.109 67.2833 44.189 67.47C44.2757 67.65 44.389 67.8067 44.529 67.94C44.669 68.0733 44.8323 68.18 45.019 68.26C45.2123 68.34 45.4157 68.38 45.629 68.38C45.9623 68.38 46.2457 68.3067 46.479 68.16C46.719 68.0067 46.9023 67.8333 47.029 67.64L47.699 68.12C47.4323 68.4733 47.1257 68.73 46.779 68.89C46.4323 69.05 46.049 69.13 45.629 69.13C45.2757 69.13 44.9457 69.07 44.639 68.95C44.3323 68.83 44.0657 68.66 43.839 68.44C43.619 68.22 43.4457 67.9567 43.319 67.65C43.1923 67.3433 43.129 67.0033 43.129 66.63C43.129 66.2633 43.189 65.9267 43.309 65.62C43.4357 65.3067 43.609 65.04 43.829 64.82C44.049 64.5933 44.3057 64.42 44.599 64.3C44.899 64.1733 45.2223 64.11 45.569 64.11C45.9357 64.11 46.2623 64.1733 46.549 64.3C46.8357 64.42 47.0757 64.59 47.269 64.81C47.469 65.0233 47.619 65.2767 47.719 65.57C47.8257 65.8633 47.879 66.1833 47.879 66.53ZM50.1702 69H49.2402V64.24H50.1702V66.12H52.5802V64.24H53.5102V69H52.5802V66.87H50.1702V69ZM58.7994 65.43L56.0994 69H55.1594V64.24H56.0994V67.71L58.7994 64.24H59.7394V69H58.7994V65.43ZM60.721 64.24H64.901V64.99H63.231V69H62.301V64.99H60.721V64.24ZM66.8144 64.24V65.84H67.9644C68.3177 65.84 68.6144 65.88 68.8544 65.96C69.101 66.04 69.301 66.15 69.4544 66.29C69.6077 66.43 69.7177 66.5967 69.7844 66.79C69.8577 66.9833 69.8944 67.19 69.8944 67.41C69.8944 67.63 69.8544 67.8367 69.7744 68.03C69.6944 68.2233 69.5744 68.3933 69.4144 68.54C69.2544 68.68 69.0544 68.7933 68.8144 68.88C68.581 68.96 68.311 69 68.0044 69H65.8844V64.24H66.8144ZM66.8144 68.3H67.7944C68.1344 68.3 68.411 68.24 68.6244 68.12C68.8444 67.9933 68.9544 67.7567 68.9544 67.41C68.9544 67.2367 68.9244 67.0933 68.8644 66.98C68.8044 66.8667 68.721 66.7767 68.6144 66.71C68.5077 66.6433 68.381 66.5967 68.2344 66.57C68.0877 66.5433 67.931 66.53 67.7644 66.53H66.8144V68.3ZM74.6983 71.4H73.7683V64.24H74.6783V65H74.7083C74.8949 64.72 75.1416 64.5033 75.4483 64.35C75.7549 64.1967 76.0816 64.12 76.4283 64.12C76.7883 64.12 77.1149 64.1867 77.4083 64.32C77.7083 64.4467 77.9616 64.6233 78.1683 64.85C78.3816 65.0767 78.5449 65.3433 78.6583 65.65C78.7716 65.95 78.8283 66.2733 78.8283 66.62C78.8283 66.9667 78.7716 67.2933 78.6583 67.6C78.5449 67.9 78.3816 68.1633 78.1683 68.39C77.9616 68.6167 77.7083 68.7967 77.4083 68.93C77.1149 69.0633 76.7849 69.13 76.4183 69.13C76.0916 69.13 75.7749 69.0567 75.4683 68.91C75.1616 68.7633 74.9149 68.55 74.7283 68.27H74.6983V71.4ZM77.8883 66.62C77.8883 66.3867 77.8516 66.1667 77.7783 65.96C77.7116 65.7467 77.6083 65.5633 77.4683 65.41C77.3283 65.25 77.1583 65.1233 76.9583 65.03C76.7583 64.9367 76.5283 64.89 76.2683 64.89C76.0283 64.89 75.8049 64.9367 75.5983 65.03C75.3983 65.1167 75.2249 65.24 75.0783 65.4C74.9316 65.5533 74.8183 65.7367 74.7383 65.95C74.6583 66.1567 74.6183 66.38 74.6183 66.62C74.6183 66.86 74.6583 67.0867 74.7383 67.3C74.8183 67.5067 74.9316 67.69 75.0783 67.85C75.2249 68.0033 75.3983 68.1267 75.5983 68.22C75.8049 68.3067 76.0283 68.35 76.2683 68.35C76.5283 68.35 76.7583 68.3033 76.9583 68.21C77.1583 68.1167 77.3283 67.9933 77.4683 67.84C77.6083 67.68 77.7116 67.4967 77.7783 67.29C77.8516 67.0767 77.8883 66.8533 77.8883 66.62ZM83.1645 65.93C83.1645 65.57 83.0612 65.3 82.8545 65.12C82.6545 64.94 82.3712 64.85 82.0045 64.85C81.7379 64.85 81.4845 64.9 81.2445 65C81.0112 65.1 80.8145 65.23 80.6545 65.39L80.1545 64.83C80.3679 64.6167 80.6445 64.4433 80.9845 64.31C81.3245 64.1767 81.6945 64.11 82.0945 64.11C82.3745 64.11 82.6312 64.1467 82.8645 64.22C83.0979 64.2933 83.2979 64.4033 83.4645 64.55C83.6379 64.6967 83.7712 64.8833 83.8645 65.11C83.9645 65.33 84.0179 65.59 84.0245 65.89C84.0312 65.9833 84.0345 66.0733 84.0345 66.16C84.0345 66.2467 84.0345 66.3367 84.0345 66.43V67.96C84.0345 68.14 84.0379 68.3233 84.0445 68.51C84.0579 68.6967 84.0745 68.86 84.0945 69H83.2545C83.2412 68.8867 83.2279 68.77 83.2145 68.65C83.2079 68.53 83.2045 68.4133 83.2045 68.3H83.1845C82.9912 68.5867 82.7612 68.7967 82.4945 68.93C82.2279 69.0567 81.9145 69.12 81.5545 69.12C81.3745 69.12 81.1845 69.0933 80.9845 69.04C80.7912 68.9933 80.6112 68.9133 80.4445 68.8C80.2845 68.68 80.1512 68.53 80.0445 68.35C79.9379 68.1633 79.8845 67.9333 79.8845 67.66C79.8845 67.3 79.9779 67.0167 80.1645 66.81C80.3512 66.5967 80.5979 66.4367 80.9045 66.33C81.2112 66.2167 81.5612 66.1467 81.9545 66.12C82.3479 66.0867 82.7512 66.07 83.1645 66.07V65.93ZM82.9745 66.7C82.7212 66.7 82.4645 66.71 82.2045 66.73C81.9512 66.75 81.7179 66.7933 81.5045 66.86C81.2979 66.9267 81.1279 67.0233 80.9945 67.15C80.8612 67.27 80.7945 67.43 80.7945 67.63C80.7945 67.7767 80.8245 67.9 80.8845 68C80.9445 68.1 81.0212 68.1833 81.1145 68.25C81.2079 68.31 81.3145 68.3533 81.4345 68.38C81.5545 68.4067 81.6745 68.42 81.7945 68.42C82.0145 68.42 82.2079 68.3833 82.3745 68.31C82.5479 68.2367 82.6945 68.1367 82.8145 68.01C82.9345 67.8767 83.0245 67.7267 83.0845 67.56C83.1445 67.3867 83.1745 67.2033 83.1745 67.01V66.7H82.9745ZM85.8845 65.46L85.2545 65.04C85.2678 65.0133 85.3078 64.9467 85.3745 64.84C85.4411 64.7333 85.5445 64.6267 85.6845 64.52C85.8311 64.4067 86.0178 64.3067 86.2445 64.22C86.4778 64.1267 86.7645 64.08 87.1045 64.08C87.4178 64.08 87.6878 64.12 87.9145 64.2C88.1478 64.2733 88.3378 64.3733 88.4845 64.5C88.6378 64.62 88.7511 64.7633 88.8245 64.93C88.8978 65.09 88.9345 65.2533 88.9345 65.42C88.9345 65.7467 88.8245 66.01 88.6045 66.21C88.3845 66.41 88.1211 66.5267 87.8145 66.56V66.59C87.9745 66.5967 88.1311 66.6233 88.2845 66.67C88.4445 66.71 88.5845 66.7767 88.7045 66.87C88.8311 66.9567 88.9311 67.07 89.0045 67.21C89.0778 67.3433 89.1145 67.5067 89.1145 67.7C89.1145 67.9267 89.0645 68.13 88.9645 68.31C88.8645 68.4833 88.7245 68.6333 88.5445 68.76C88.3645 68.88 88.1478 68.9733 87.8945 69.04C87.6478 69.1067 87.3745 69.14 87.0745 69.14C86.7211 69.14 86.4278 69.0967 86.1945 69.01C85.9611 68.9233 85.7711 68.8267 85.6245 68.72C85.4845 68.6133 85.3778 68.5133 85.3045 68.42C85.2378 68.3267 85.1945 68.2733 85.1745 68.26L85.7645 67.76C85.7778 67.7733 85.8111 67.8167 85.8645 67.89C85.9178 67.9567 85.9978 68.03 86.1045 68.11C86.2111 68.19 86.3445 68.2633 86.5045 68.33C86.6645 68.39 86.8611 68.42 87.0945 68.42C87.4411 68.42 87.7111 68.3533 87.9045 68.22C88.1045 68.08 88.2045 67.8867 88.2045 67.64C88.2045 67.4267 88.1111 67.2533 87.9245 67.12C87.7378 66.9867 87.4578 66.92 87.0845 66.92H86.4245V66.28H87.0045C87.3045 66.28 87.5545 66.2233 87.7545 66.11C87.9611 65.9967 88.0645 65.8133 88.0645 65.56C88.0645 65.3533 87.9811 65.17 87.8145 65.01C87.6478 64.8433 87.3878 64.76 87.0345 64.76C86.8011 64.76 86.6111 64.7967 86.4645 64.87C86.3178 64.9433 86.2011 65.0233 86.1145 65.11C86.0145 65.2167 85.9378 65.3333 85.8845 65.46ZM91.2215 64.24L93.1715 66.55L95.0915 64.24H95.8915V69H94.9615V65.56L93.3015 67.68H93.0215L91.3515 65.6V69H90.4215V64.24H91.2215ZM101.112 66.21C101.098 65.81 100.972 65.48 100.732 65.22C100.492 64.96 100.148 64.83 99.7018 64.83C99.4951 64.83 99.3018 64.87 99.1218 64.95C98.9485 65.0233 98.7951 65.1233 98.6618 65.25C98.5285 65.3767 98.4185 65.5233 98.3318 65.69C98.2518 65.8567 98.2051 66.03 98.1918 66.21H101.112ZM102.012 66.53C102.012 66.5833 102.012 66.64 102.012 66.7C102.012 66.7533 102.008 66.81 102.002 66.87H98.1918C98.1985 67.0833 98.2418 67.2833 98.3218 67.47C98.4085 67.65 98.5218 67.8067 98.6618 67.94C98.8018 68.0733 98.9651 68.18 99.1518 68.26C99.3451 68.34 99.5485 68.38 99.7618 68.38C100.095 68.38 100.378 68.3067 100.612 68.16C100.852 68.0067 101.035 67.8333 101.162 67.64L101.832 68.12C101.565 68.4733 101.258 68.73 100.912 68.89C100.565 69.05 100.182 69.13 99.7618 69.13C99.4085 69.13 99.0785 69.07 98.7718 68.95C98.4651 68.83 98.1985 68.66 97.9718 68.44C97.7518 68.22 97.5785 67.9567 97.4518 67.65C97.3251 67.3433 97.2618 67.0033 97.2618 66.63C97.2618 66.2633 97.3218 65.9267 97.4418 65.62C97.5685 65.3067 97.7418 65.04 97.9618 64.82C98.1818 64.5933 98.4385 64.42 98.7318 64.3C99.0318 64.1733 99.3551 64.11 99.7018 64.11C100.068 64.11 100.395 64.1733 100.682 64.3C100.968 64.42 101.208 64.59 101.402 64.81C101.602 65.0233 101.752 65.2767 101.852 65.57C101.958 65.8633 102.012 66.1833 102.012 66.53ZM104.333 71.4H103.403V64.24H104.313V65H104.343C104.53 64.72 104.776 64.5033 105.083 64.35C105.39 64.1967 105.716 64.12 106.063 64.12C106.423 64.12 106.75 64.1867 107.043 64.32C107.343 64.4467 107.596 64.6233 107.803 64.85C108.016 65.0767 108.18 65.3433 108.293 65.65C108.406 65.95 108.463 66.2733 108.463 66.62C108.463 66.9667 108.406 67.2933 108.293 67.6C108.18 67.9 108.016 68.1633 107.803 68.39C107.596 68.6167 107.343 68.7967 107.043 68.93C106.75 69.0633 106.42 69.13 106.053 69.13C105.726 69.13 105.41 69.0567 105.103 68.91C104.796 68.7633 104.55 68.55 104.363 68.27H104.333V71.4ZM107.523 66.62C107.523 66.3867 107.486 66.1667 107.413 65.96C107.346 65.7467 107.243 65.5633 107.103 65.41C106.963 65.25 106.793 65.1233 106.593 65.03C106.393 64.9367 106.163 64.89 105.903 64.89C105.663 64.89 105.44 64.9367 105.233 65.03C105.033 65.1167 104.86 65.24 104.713 65.4C104.566 65.5533 104.453 65.7367 104.373 65.95C104.293 66.1567 104.253 66.38 104.253 66.62C104.253 66.86 104.293 67.0867 104.373 67.3C104.453 67.5067 104.566 67.69 104.713 67.85C104.86 68.0033 105.033 68.1267 105.233 68.22C105.44 68.3067 105.663 68.35 105.903 68.35C106.163 68.35 106.393 68.3033 106.593 68.21C106.793 68.1167 106.963 67.9933 107.103 67.84C107.243 67.68 107.346 67.4967 107.413 67.29C107.486 67.0767 107.523 66.8533 107.523 66.62Z" fill="white"/>
<path d="M28.4641 46.5C28.849 45.8333 29.8113 45.8333 30.1962 46.5L32.7942 51C33.1791 51.6667 32.698 52.5 31.9282 52.5H26.7321C25.9623 52.5 25.4811 51.6667 25.866 51L28.4641 46.5Z" fill="#0A7CC1"/>
</svg>
