<svg width="164" height="74" viewBox="0 0 164 74" fill="none" xmlns="http://www.w3.org/2000/svg">
<path fill-rule="evenodd" clip-rule="evenodd" d="M99.3924 37.0002C99.3924 44.5287 91.6048 50.6317 81.9984 50.6317C72.392 50.6317 64.6045 44.5287 64.6045 37.0002C64.6045 29.4717 72.392 23.3687 81.9984 23.3687C91.6048 23.3687 99.3924 29.4717 99.3924 37.0002ZM89.453 37.0002C89.453 40.2267 86.1154 42.8423 81.9984 42.8423C77.8814 42.8423 74.5439 40.2267 74.5439 37.0002C74.5439 33.7737 77.8814 31.1581 81.9984 31.1581C86.1154 31.1581 89.453 33.7737 89.453 37.0002Z" fill="#0A7CC1"/>
<path fill-rule="evenodd" clip-rule="evenodd" d="M99.3924 37.0002C99.3924 44.5287 91.6048 50.6317 81.9984 50.6317C72.392 50.6317 64.6045 44.5287 64.6045 37.0002C64.6045 29.4717 72.392 23.3687 81.9984 23.3687C91.6048 23.3687 99.3924 29.4717 99.3924 37.0002ZM89.453 37.0002C89.453 40.2267 86.1154 42.8423 81.9984 42.8423C77.8814 42.8423 74.5439 40.2267 74.5439 37.0002C74.5439 33.7737 77.8814 31.1581 81.9984 31.1581C86.1154 31.1581 89.453 33.7737 89.453 37.0002Z" fill="white"/>
<path fill-rule="evenodd" clip-rule="evenodd" d="M0 37.0001C0 37.0001 36.5594 0.154669 81.7162 0.000653873L81.9998 0L82.2826 0.000649582C127.44 0.153983 164 37.0001 164 37.0001C164 37.0001 127.287 74 82 74C36.7127 74 0 37.0001 0 37.0001ZM81.9998 66.2104C102.585 66.2104 119.273 53.1324 119.273 36.9999C119.273 20.9278 102.71 7.88743 82.2309 7.79L82 7.78963L81.768 7.79001C61.2896 7.88774 44.7271 20.928 44.7271 36.9999C44.7271 53.1324 61.4147 66.2104 81.9998 66.2104ZM129.212 36.9999C129.212 30.2415 126.9 23.9062 122.862 18.4536C126.718 20.3848 130.377 22.4657 133.796 24.5963C140.75 28.9311 146.399 33.2815 150.305 36.5463C150.489 36.7001 150.669 36.8514 150.845 37.0001C150.669 37.1487 150.489 37.3 150.305 37.4538C146.399 40.7187 140.75 45.069 133.796 49.4038C130.377 51.5346 126.718 53.6156 122.861 55.5468C126.9 50.094 129.212 43.7586 129.212 36.9999ZM34.7877 36.9999C34.7877 30.2416 37.0998 23.9064 41.138 18.4538C37.2816 20.3849 33.6224 22.4658 30.2045 24.5963C23.2504 28.9311 17.6007 33.2815 13.6952 36.5463C13.5112 36.7001 13.3312 36.8514 13.1553 37.0001C13.3312 37.1487 13.5112 37.3 13.6952 37.4538C17.6007 40.7187 23.2504 45.069 30.2045 49.4038C33.6225 51.5345 37.2818 53.6154 41.1384 55.5465C37.1 50.0938 34.7877 43.7585 34.7877 36.9999Z" fill="#0A7CC1"/>
<path fill-rule="evenodd" clip-rule="evenodd" d="M0 37.0001C0 37.0001 36.5594 0.154669 81.7162 0.000653873L81.9998 0L82.2826 0.000649582C127.44 0.153983 164 37.0001 164 37.0001C164 37.0001 127.287 74 82 74C36.7127 74 0 37.0001 0 37.0001ZM81.9998 66.2104C102.585 66.2104 119.273 53.1324 119.273 36.9999C119.273 20.9278 102.71 7.88743 82.2309 7.79L82 7.78963L81.768 7.79001C61.2896 7.88774 44.7271 20.928 44.7271 36.9999C44.7271 53.1324 61.4147 66.2104 81.9998 66.2104ZM129.212 36.9999C129.212 30.2415 126.9 23.9062 122.862 18.4536C126.718 20.3848 130.377 22.4657 133.796 24.5963C140.75 28.9311 146.399 33.2815 150.305 36.5463C150.489 36.7001 150.669 36.8514 150.845 37.0001C150.669 37.1487 150.489 37.3 150.305 37.4538C146.399 40.7187 140.75 45.069 133.796 49.4038C130.377 51.5346 126.718 53.6156 122.861 55.5468C126.9 50.094 129.212 43.7586 129.212 36.9999ZM34.7877 36.9999C34.7877 30.2416 37.0998 23.9064 41.138 18.4538C37.2816 20.3849 33.6224 22.4658 30.2045 24.5963C23.2504 28.9311 17.6007 33.2815 13.6952 36.5463C13.5112 36.7001 13.3312 36.8514 13.1553 37.0001C13.3312 37.1487 13.5112 37.3 13.6952 37.4538C17.6007 40.7187 23.2504 45.069 30.2045 49.4038C33.6225 51.5345 37.2818 53.6154 41.1384 55.5465C37.1 50.0938 34.7877 43.7585 34.7877 36.9999Z" fill="white"/>
</svg>
